<svg xmlns="http://www.w3.org/2000/svg" width="215" height="41" viewBox="0 0 215 41"><title>OJ103847488</title><rect width="215" height="41" fill="#fff"/><path d="M214,1V40H1V1H214m1-1H0V41H215Z" fill="#8c8c8c"/><rect x="13" y="11" width="9" height="9" fill="#f25022"/><rect x="13" y="21" width="9" height="9" fill="#00a4ef"/><rect x="23" y="11" width="9" height="9" fill="#7fba00"/><rect x="23" y="21" width="9" height="9" fill="#ffb900"/><path d="M57.6,25.5H55.8V18.7c0-.5.1-1.2.1-2h0a4.1,4.1,0,0,1-.3,1l-3.1,7.8H51.3l-3.1-7.7a8.1,8.1,0,0,1-.3-1.1h0v8.8H46.3V15.1h2.5L51.5,22a4.1,4.1,0,0,1,.4,1.2H52c.2-.5.3-.9.4-1.2l2.8-6.9h2.4Z" fill="#5e5e5e"/><path d="M60.4,16.5a1,1,0,0,1-1-1,1.1,1.1,0,0,1,.3-.7l.7-.2.7.2a1.1,1.1,0,0,1,.3.7,1,1,0,0,1-1,1Zm.8,9H59.6V18h1.6Z" fill="#5e5e5e"/><path d="M68.4,25.2a4.6,4.6,0,0,1-2.1.5,3.7,3.7,0,0,1-2.7-1.1,3.6,3.6,0,0,1-1-2.7A4,4,0,0,1,63.7,19a3.6,3.6,0,0,1,2.9-1.1,4.8,4.8,0,0,1,1.8.3v1.6a2.6,2.6,0,0,0-3.4.1,3.2,3.2,0,0,0-.7,1.9,2.5,2.5,0,0,0,.7,1.9,2.4,2.4,0,0,0,1.7.6,2.7,2.7,0,0,0,1.7-.6Z" fill="#5e5e5e"/><path d="M74,19.7a1.1,1.1,0,0,0-.8-.3,1.5,1.5,0,0,0-1.3.7,3.2,3.2,0,0,0-.5,1.8v3.6H69.7V18h1.7v1.6h0a3.6,3.6,0,0,1,.8-1.2,1.6,1.6,0,0,1,1.1-.5l.7.2Z" fill="#5e5e5e"/><path d="M78,25.7a3.8,3.8,0,0,1-3.8-3.8,4.1,4.1,0,0,1,1.1-3,3.9,3.9,0,0,1,2.9-1,3.3,3.3,0,0,1,2.7,1,3.7,3.7,0,0,1,1,2.8,3.9,3.9,0,0,1-1,2.9A4,4,0,0,1,78,25.7Zm.1-6.5a2.4,2.4,0,0,0-1.6.7,3.6,3.6,0,0,0-.5,1.9,2.9,2.9,0,0,0,.6,1.9,1.9,1.9,0,0,0,1.5.6,1.8,1.8,0,0,0,1.5-.6,2.9,2.9,0,0,0,.6-1.9,2.7,2.7,0,0,0-.6-1.9A1.6,1.6,0,0,0,78.1,19.2Z" fill="#5e5e5e"/><path d="M82.8,25.3V23.7a3.1,3.1,0,0,0,2.1.7q1.5,0,1.5-.9a.6.6,0,0,0-.1-.4l-.4-.3-.5-.3-.7-.2-.8-.4a1.5,1.5,0,0,1-.6-.5.9.9,0,0,1-.4-.6,1.5,1.5,0,0,1-.1-.7,1.7,1.7,0,0,1,.3-1,1.9,1.9,0,0,1,.6-.7l1-.4h1.1a5.8,5.8,0,0,1,1.9.3v1.5a2.8,2.8,0,0,0-1.8-.6h-.6a.5.5,0,0,0-.4.2c-.2.1-.3.1-.3.3a.4.4,0,0,0-.1.3c0,.2,0,.3.1.4s.1.2.3.3l.5.2.6.3.9.4.6.4a2.1,2.1,0,0,1,.4.6,2.4,2.4,0,0,1,.2.8,1.7,1.7,0,0,1-.3,1,2.3,2.3,0,0,1-.7.7,1.8,1.8,0,0,1-1,.4l-1.2.2A6.5,6.5,0,0,1,82.8,25.3Z" fill="#5e5e5e"/><path d="M92.6,25.7a3.5,3.5,0,0,1-2.7-1.1,3.7,3.7,0,0,1-1.1-2.7,4.1,4.1,0,0,1,1.1-3,3.9,3.9,0,0,1,2.9-1,3.3,3.3,0,0,1,2.7,1,3.7,3.7,0,0,1,1,2.8,4,4,0,0,1-1.1,2.9A3.8,3.8,0,0,1,92.6,25.7Zm.1-6.5a2.2,2.2,0,0,0-1.6.7,2.9,2.9,0,0,0-.5,1.9,2.9,2.9,0,0,0,.5,1.9,2.1,2.1,0,0,0,1.6.6,1.8,1.8,0,0,0,1.5-.6,2.9,2.9,0,0,0,.6-1.9,2.7,2.7,0,0,0-.6-1.9A1.6,1.6,0,0,0,92.7,19.2Z" fill="#5e5e5e"/><path d="M101.8,15.8l-.8-.2c-.8,0-1.2.5-1.2,1.4v1h1.7v1.4H99.8v6.1H98.1V19.4H96.8V18h1.3V16.8a2.3,2.3,0,0,1,.8-1.8,2.5,2.5,0,0,1,1.9-.7h1Z" fill="#5e5e5e"/><path d="M106.6,25.4a2.8,2.8,0,0,1-1.3.3c-1.5,0-2.2-.7-2.2-2.1V19.4h-1.3V18h1.3V16.3l1.7-.5V18h1.8v1.4h-1.8v3.7a1.7,1.7,0,0,0,.2.9,1,1,0,0,0,.8.3l.8-.2Z" fill="#5e5e5e"/><path d="M112.2,16.5a1,1,0,0,1-1-1,1.1,1.1,0,0,1,.3-.7l.7-.2.7.2a1.1,1.1,0,0,1,.3.7,1,1,0,0,1-1,1Zm.9,9h-1.7V18h1.7Z" fill="#5e5e5e"/><path d="M116.6,25.5h-1.7v-11h1.7Z" fill="#5e5e5e"/><path d="M124.7,22.2h-5.1a2.4,2.4,0,0,0,.7,1.6,2.1,2.1,0,0,0,1.6.6,4.1,4.1,0,0,0,2.2-.7V25a4.1,4.1,0,0,1-2.7.7,3.4,3.4,0,0,1-2.5-1,3.9,3.9,0,0,1-1-2.9A3.8,3.8,0,0,1,119,19a3.4,3.4,0,0,1,4.9-.1,4.1,4.1,0,0,1,.8,2.7ZM123.1,21a2.9,2.9,0,0,0-.4-1.4,1.7,1.7,0,0,0-2.4,0,2.7,2.7,0,0,0-.7,1.4Z" fill="#5e5e5e"/><path d="M133,25.7a3.8,3.8,0,0,1-2.8-1.1,3.6,3.6,0,0,1-1-2.7,4.1,4.1,0,0,1,1.1-3,3.8,3.8,0,0,1,2.9-1,3.6,3.6,0,0,1,2.7,1,4.1,4.1,0,0,1,1,2.8,4,4,0,0,1-1.1,2.9A3.8,3.8,0,0,1,133,25.7Zm.1-6.5a2.2,2.2,0,0,0-1.6.7,2.9,2.9,0,0,0-.6,1.9,2.9,2.9,0,0,0,.6,1.9,2.1,2.1,0,0,0,1.6.6,2,2,0,0,0,1.5-.6,3.6,3.6,0,0,0,.5-1.9,3.3,3.3,0,0,0-.5-1.9A1.8,1.8,0,0,0,133.1,19.2Z" fill="#5e5e5e"/><path d="M142.1,25.4a2.3,2.3,0,0,1-1.3.3,1.9,1.9,0,0,1-2.1-2.1V19.4h-1.3V18h1.3V16.3l1.6-.5V18h1.8v1.4h-1.8v3.7c0,.4.1.8.3.9s.4.3.8.3l.7-.2Z" fill="#5e5e5e"/><path d="M149.7,25.5H148V24.3h0a2.5,2.5,0,0,1-2.3,1.4c-1.8,0-2.6-1.1-2.6-3.2V18h1.7v4.3c0,1.4.5,2,1.5,2a1.3,1.3,0,0,0,1.2-.5,2,2,0,0,0,.5-1.5V18h1.7Z" fill="#5e5e5e"/><path d="M155.9,19.7a1.2,1.2,0,0,0-.9-.3,1.6,1.6,0,0,0-1.3.7,3.2,3.2,0,0,0-.5,1.8v3.6h-1.7V18h1.7v1.6h.1a2.4,2.4,0,0,1,.7-1.2,1.8,1.8,0,0,1,1.2-.5l.7.2Z" fill="#5e5e5e"/><path d="M163.2,25.5h-1.7V24.3h0a2.5,2.5,0,0,1-2.3,1.4c-1.8,0-2.7-1.1-2.7-3.2V18h1.7v4.3c0,1.4.5,2,1.6,2a1.3,1.3,0,0,0,1.2-.5,2.5,2.5,0,0,0,.5-1.5V18h1.7Z" fill="#5e5e5e"/><path d="M176.1,25.5h-1.6V21.4a3.9,3.9,0,0,0-.4-1.7,1.3,1.3,0,0,0-1.1-.5,1.3,1.3,0,0,0-1.1.7,2.8,2.8,0,0,0-.5,1.6v4h-1.7V21.3c0-1.4-.5-2.1-1.4-2.1a1.4,1.4,0,0,0-1.2.6,3.1,3.1,0,0,0-.4,1.7v4H165V18h1.7v1.2h0a2.6,2.6,0,0,1,2.4-1.3,2,2,0,0,1,1.3.4,2.1,2.1,0,0,1,.8,1.1,2.7,2.7,0,0,1,2.5-1.5q2.4,0,2.4,3Z" fill="#5e5e5e"/><path d="M187.3,25.5h-1.7V24.3h0a2.5,2.5,0,0,1-2.3,1.4,2.4,2.4,0,0,1-1.7-.6,2.1,2.1,0,0,1-.6-1.6c0-1.4.8-2.2,2.4-2.5l2.2-.3a1.4,1.4,0,0,0-1.5-1.6,3.6,3.6,0,0,0-2.4.9V18.6a5.1,5.1,0,0,1,2.8-.7,2.5,2.5,0,0,1,2.8,2.8Zm-1.7-3.7-1.5.3a1.6,1.6,0,0,0-1.1.3,1,1,0,0,0-.4.9.9.9,0,0,0,.4.8,1.2,1.2,0,0,0,.9.3,1.7,1.7,0,0,0,1.2-.5,1.9,1.9,0,0,0,.5-1.4Z" fill="#5e5e5e"/><path d="M194.3,25.2a4.6,4.6,0,0,1-2.1.5,3.7,3.7,0,0,1-2.7-1.1,3.6,3.6,0,0,1-1-2.7,3.8,3.8,0,0,1,4-4,4.8,4.8,0,0,1,1.8.3v1.6a2.7,2.7,0,0,0-1.7-.6,2.4,2.4,0,0,0-1.7.7,2.6,2.6,0,0,0-.7,1.9,2.9,2.9,0,0,0,.6,1.9,2.8,2.8,0,0,0,1.8.6,2.7,2.7,0,0,0,1.7-.6Zm-.6,2.1c0,.9-.7,1.4-2.1,1.4H191v-.8h.5c.7,0,1-.2,1-.6s-.3-.5-.9-.5h-.3V25.5h1v.7a1.5,1.5,0,0,1,1,.3A.9.9,0,0,1,193.7,27.3Z" fill="#5e5e5e"/><path d="M197.3,25.5h-1.7V18h1.7Z" fill="#5e5e5e"/><path d="M205.8,25.5h-1.7V21.3q0-2.1-1.5-2.1a1.6,1.6,0,0,0-1.3.6,2.5,2.5,0,0,0-.5,1.5v4.2h-1.7V18h1.7v1.3h0a2.7,2.7,0,0,1,2.5-1.4,1.9,1.9,0,0,1,1.8.8,3.6,3.6,0,0,1,.7,2.2Z" fill="#5e5e5e"/></svg>