<?xml version="1.0" encoding="utf-8"?>
<!-- Generator: Adobe Illustrator 22.1.0, SVG Export Plug-In . SVG Version: 6.00 Build 0)  -->
<svg version="1.1" id="Layer_1" xmlns="http://www.w3.org/2000/svg" xmlns:xlink="http://www.w3.org/1999/xlink" x="0px" y="0px"
	 viewBox="0 0 129 41" style="enable-background:new 0 0 129 41;" xml:space="preserve">
<style type="text/css">
	.st0{enable-background:new    ;}
	.st1{fill:#5E5E5E;}
</style>
<image style="overflow:visible;enable-background:new    ;" width="129" height="41" id="Background" xlink:href="43CC08D1.jpg"  transform="matrix(1 0 0 1 0 1.682073e-05)">
</image>
<g id="Oturum_aç" class="st0">
	<path class="st1" d="M50.4,25.6c-1.5,0-2.6-0.5-3.5-1.4c-0.9-0.9-1.3-2.2-1.3-3.7c0-1.6,0.4-2.9,1.3-3.9c0.9-1,2.1-1.4,3.6-1.4
		c1.4,0,2.6,0.5,3.4,1.4c0.9,0.9,1.3,2.2,1.3,3.7c0,1.6-0.4,2.9-1.3,3.9C53.1,25.1,51.9,25.6,50.4,25.6z M50.5,16.7
		c-0.9,0-1.7,0.3-2.3,1c-0.6,0.7-0.9,1.6-0.9,2.7c0,1.1,0.3,2,0.8,2.7c0.6,0.7,1.3,1,2.2,1c1,0,1.7-0.3,2.3-1
		c0.6-0.7,0.8-1.6,0.8-2.7c0-1.2-0.3-2.1-0.8-2.8C52.2,17,51.4,16.7,50.5,16.7z"/>
	<path class="st1" d="M60.7,25.4c-0.3,0.2-0.7,0.2-1.3,0.2c-1.4,0-2.1-0.7-2.1-2v-4.1h-1.2v-1.3h1.2v-1.7l1.6-0.5v2.1h1.7v1.3H59
		v3.6c0,0.4,0.1,0.7,0.2,0.9c0.2,0.2,0.4,0.3,0.8,0.3c0.3,0,0.5-0.1,0.7-0.2V25.4z"/>
	<path class="st1" d="M68.4,25.4h-1.6v-1.1h0c-0.5,0.9-1.2,1.3-2.2,1.3c-1.7,0-2.6-1-2.6-3.1v-4.3h1.6v4.1c0,1.3,0.5,1.9,1.5,1.9
		c0.5,0,0.9-0.2,1.2-0.5c0.3-0.4,0.5-0.8,0.5-1.4v-4.1h1.6V25.4z"/>
	<path class="st1" d="M74.7,19.8c-0.2-0.2-0.5-0.2-0.9-0.2c-0.5,0-0.9,0.2-1.2,0.7c-0.3,0.4-0.5,1-0.5,1.8v3.4h-1.6v-7.2h1.6v1.5h0
		c0.2-0.5,0.4-0.9,0.7-1.2c0.3-0.3,0.7-0.4,1.1-0.4c0.3,0,0.5,0,0.7,0.1V19.8z"/>
	<path class="st1" d="M82.2,25.4h-1.6v-1.1h0c-0.5,0.9-1.2,1.3-2.2,1.3c-1.7,0-2.6-1-2.6-3.1v-4.3h1.6v4.1c0,1.3,0.5,1.9,1.5,1.9
		c0.5,0,0.9-0.2,1.2-0.5s0.5-0.8,0.5-1.4v-4.1h1.6V25.4z"/>
	<path class="st1" d="M95,25.4h-1.6v-3.9c0-0.8-0.1-1.3-0.3-1.6c-0.2-0.3-0.6-0.5-1.1-0.5c-0.4,0-0.8,0.2-1.1,0.6
		c-0.3,0.4-0.4,0.9-0.4,1.5v3.9h-1.6v-4.1c0-1.3-0.5-2-1.4-2c-0.4,0-0.8,0.2-1.1,0.6c-0.3,0.4-0.4,0.9-0.4,1.6v3.9h-1.6v-7.2h1.6
		v1.1h0c0.5-0.9,1.3-1.3,2.3-1.3c0.5,0,0.9,0.1,1.3,0.4c0.4,0.3,0.6,0.6,0.8,1.1c0.5-1,1.3-1.5,2.4-1.5c1.6,0,2.4,1,2.4,2.9V25.4z"
		/>
	<path class="st1" d="M106.5,25.4h-1.6v-1.1h0c-0.5,0.9-1.2,1.3-2.2,1.3c-0.7,0-1.3-0.2-1.7-0.6c-0.4-0.4-0.6-0.9-0.6-1.5
		c0-1.4,0.8-2.2,2.3-2.4l2.1-0.3c0-1-0.5-1.5-1.5-1.5c-0.9,0-1.6,0.3-2.3,0.9v-1.4c0.8-0.5,1.6-0.7,2.6-0.7c1.8,0,2.7,0.9,2.7,2.7
		V25.4z M104.9,21.9l-1.5,0.2c-0.5,0.1-0.8,0.2-1.1,0.3c-0.2,0.2-0.4,0.5-0.4,0.9c0,0.3,0.1,0.6,0.3,0.7c0.2,0.2,0.5,0.3,0.9,0.3
		c0.5,0,0.9-0.2,1.2-0.5c0.3-0.3,0.5-0.8,0.5-1.3V21.9z"/>
	<path class="st1" d="M113.7,25.1c-0.6,0.3-1.3,0.5-2,0.5c-1.1,0-1.9-0.3-2.6-1s-1-1.5-1-2.6c0-1.2,0.4-2.1,1.1-2.9
		c0.7-0.7,1.6-1.1,2.8-1.1c0.7,0,1.2,0.1,1.7,0.3v1.5c-0.5-0.4-1-0.6-1.6-0.6c-0.7,0-1.3,0.2-1.7,0.7s-0.7,1.1-0.7,1.8
		c0,0.7,0.2,1.3,0.6,1.8c0.4,0.4,1,0.6,1.7,0.6c0.6,0,1.1-0.2,1.7-0.6V25.1z M113.1,27.2c0,0.9-0.7,1.4-2,1.4c-0.2,0-0.4,0-0.6,0
		v-0.8c0.2,0,0.4,0,0.5,0c0.6,0,0.9-0.2,0.9-0.6c0-0.3-0.3-0.5-0.9-0.5c0,0-0.1,0-0.3,0v-1.3h1v0.7c0.4,0,0.7,0.1,1,0.3
		C113,26.6,113.1,26.8,113.1,27.2z"/>
</g>
</svg>
