<svg xmlns="http://www.w3.org/2000/svg" width="215" height="41" viewBox="0 0 215 41"><title>OJ103910576</title><rect width="215" height="41" fill="#2f2f2f"/><rect x="13" y="11" width="9" height="9" fill="#f25022"/><rect x="13" y="21" width="9" height="9" fill="#00a4ef"/><rect x="23" y="11" width="9" height="9" fill="#7fba00"/><rect x="23" y="21" width="9" height="9" fill="#ffb900"/><path d="M56.9,25.5H55.3V19.2a14.8,14.8,0,0,1,.1-2h0a4.1,4.1,0,0,1-.3,1l-2.9,7.3H51.1l-3-7.3a8.4,8.4,0,0,0-.2-1h-.1a10.4,10.4,0,0,1,.1,2v6.3H46.4V15.7h2.3l2.6,6.5a3.6,3.6,0,0,1,.3,1.1h.1l.4-1.1,2.6-6.5h2.2Z" fill="#fff"/><path d="M60,17l-.7-.2a.9.9,0,0,1-.3-.7.9.9,0,0,1,.3-.6.9.9,0,0,1,.7-.3.7.7,0,0,1,.6.3.9.9,0,0,1,.3.6.9.9,0,0,1-.3.7Zm.7,8.5H59.2v-7h1.5Z" fill="#fff"/><path d="M67.8,25.2a3.9,3.9,0,0,1-2,.5,3.7,3.7,0,0,1-2.5-1,3.7,3.7,0,0,1-.9-2.5,3.7,3.7,0,0,1,1-2.8,3.8,3.8,0,0,1,2.8-1.1,2.7,2.7,0,0,1,1.6.4v1.4a2.7,2.7,0,0,0-1.5-.5,2.2,2.2,0,0,0-1.7.7,2.4,2.4,0,0,0-.6,1.8,2.4,2.4,0,0,0,.6,1.7,2.1,2.1,0,0,0,1.6.6,2.5,2.5,0,0,0,1.6-.6Z" fill="#fff"/><path d="M73.5,20l-.9-.2a1.4,1.4,0,0,0-1.1.6,2.3,2.3,0,0,0-.5,1.7v3.4H69.4v-7H71v1.4h0a3,3,0,0,1,.7-1.1,1.7,1.7,0,0,1,1.1-.4h.7Z" fill="#fff"/><path d="M77.6,25.7a3.6,3.6,0,0,1-2.6-1,3.4,3.4,0,0,1-1-2.6,4.1,4.1,0,0,1,1-2.8,4.1,4.1,0,0,1,2.7-1,3.6,3.6,0,0,1,2.6,1,3.7,3.7,0,0,1,.9,2.7,3.4,3.4,0,0,1-3.6,3.7Zm0-6.1a1.7,1.7,0,0,0-1.4.6,2.8,2.8,0,0,0-.6,1.8,2.4,2.4,0,0,0,.6,1.8,1.7,1.7,0,0,0,1.4.6,1.9,1.9,0,0,0,1.5-.6,3,3,0,0,0,.5-1.8,3,3,0,0,0-.5-1.8A1.9,1.9,0,0,0,77.6,19.6Z" fill="#fff"/><path d="M82.4,25.3V23.8a2.9,2.9,0,0,0,2,.7c.9,0,1.4-.3,1.4-.9s-.1-.3-.1-.4l-.4-.3-.5-.2-.6-.2-.8-.4-.5-.4a2.1,2.1,0,0,1-.4-.6,1.5,1.5,0,0,1-.1-.7,2.9,2.9,0,0,1,.2-.9c.2-.2.4-.5.7-.6a2.5,2.5,0,0,1,.9-.4l1.1-.2a4.7,4.7,0,0,1,1.7.3V20a3.4,3.4,0,0,0-1.7-.5h-1c-.1.1-.2.2-.2.3a.4.4,0,0,0-.1.3c0,.2,0,.3.1.4s.1.2.3.3a.5.5,0,0,0,.4.2l.6.2.8.4a1.5,1.5,0,0,1,.6.4,2.1,2.1,0,0,1,.4.6,1.9,1.9,0,0,1,.2.8,1.6,1.6,0,0,1-.3.9c-.1.3-.4.5-.6.7a2.9,2.9,0,0,1-1,.3l-1.1.2A5.9,5.9,0,0,1,82.4,25.3Z" fill="#fff"/><path d="M92,25.7a3.6,3.6,0,0,1-2.6-1,3.4,3.4,0,0,1-1-2.6,3.7,3.7,0,0,1,1-2.8,4.1,4.1,0,0,1,2.7-1,3.6,3.6,0,0,1,2.6,1,3.7,3.7,0,0,1,.9,2.7A3.4,3.4,0,0,1,92,25.7Zm0-6.1a1.7,1.7,0,0,0-1.4.6A2.8,2.8,0,0,0,90,22a2.4,2.4,0,0,0,.6,1.8,1.7,1.7,0,0,0,1.4.6,1.9,1.9,0,0,0,1.5-.6A3,3,0,0,0,94,22a3,3,0,0,0-.5-1.8A1.9,1.9,0,0,0,92,19.6Z" fill="#fff"/><path d="M101,16.4l-.8-.2c-.7,0-1.1.5-1.1,1.3v1h1.6v1.2H99.1v5.8H97.5V19.7H96.3V18.5h1.2V17.4a2.1,2.1,0,0,1,.7-1.8A2.8,2.8,0,0,1,100,15h1Z" fill="#fff"/><path d="M105.8,25.4a2.1,2.1,0,0,1-1.2.3,1.8,1.8,0,0,1-2.1-2v-4h-1.2V18.5h1.2V16.9l1.6-.5v2.1h1.7v1.2h-1.7v3.5a1.4,1.4,0,0,0,.2.9,1,1,0,0,0,.8.3l.7-.2Z" fill="#fff"/><path d="M111.8,17l-.7-.2a.9.9,0,0,1-.3-.7.9.9,0,0,1,.3-.6,1,1,0,0,1,1.4,0,.9.9,0,0,1,.3.6.9.9,0,0,1-.3.7Zm.8,8.5H111v-7h1.6Z" fill="#fff"/><path d="M116.2,25.5h-1.6V15.1h1.6Z" fill="#fff"/><path d="M124.2,22.4h-4.7a1.8,1.8,0,0,0,.6,1.5,1.9,1.9,0,0,0,1.5.6,3.8,3.8,0,0,0,2.1-.7v1.3a4.6,4.6,0,0,1-2.5.6,3.4,3.4,0,0,1-2.5-1,3.6,3.6,0,0,1-.8-2.7,3.6,3.6,0,0,1,.9-2.6,3.4,3.4,0,0,1,2.4-1.1,2.5,2.5,0,0,1,2.2,1,3.3,3.3,0,0,1,.8,2.5Zm-1.5-1.1a1.7,1.7,0,0,0-.4-1.3,1.4,1.4,0,0,0-1.1-.5,2.1,2.1,0,0,0-1.2.5,1.9,1.9,0,0,0-.5,1.3Z" fill="#fff"/><path d="M132.7,25.7a3.8,3.8,0,0,1-2.6-1,3.8,3.8,0,0,1-1-2.6,3.8,3.8,0,0,1,1.1-2.8,3.7,3.7,0,0,1,2.7-1,3.4,3.4,0,0,1,2.5,1,3.7,3.7,0,0,1,.9,2.7,4,4,0,0,1-.9,2.7A4.1,4.1,0,0,1,132.7,25.7Zm.1-6.1a2,2,0,0,0-1.5.6,2.7,2.7,0,0,0-.5,1.8,2.4,2.4,0,0,0,.5,1.8,2,2,0,0,0,1.5.6,1.7,1.7,0,0,0,1.4-.6,3,3,0,0,0,.5-1.8,3,3,0,0,0-.5-1.8A1.7,1.7,0,0,0,132.8,19.6Z" fill="#fff"/><path d="M141.7,25.4a2.8,2.8,0,0,1-1.3.3,1.8,1.8,0,0,1-2-2v-4h-1.2V18.5h1.2V16.9l1.6-.5v2.1h1.7v1.2H140v3.5a1.4,1.4,0,0,0,.2.9,1,1,0,0,0,.8.3l.7-.2Z" fill="#fff"/><path d="M149.1,25.5h-1.6V24.4h0a2.4,2.4,0,0,1-2.1,1.3c-1.7,0-2.5-1-2.5-3V18.5h1.6v4c0,1.3.5,1.9,1.4,1.9a1.7,1.7,0,0,0,1.2-.5,2.1,2.1,0,0,0,.4-1.4v-4h1.6Z" fill="#fff"/><path d="M155.3,20l-.9-.2a1.7,1.7,0,0,0-1.2.6,2.9,2.9,0,0,0-.4,1.7v3.4h-1.6v-7h1.6v1.4h0a3,3,0,0,1,.7-1.1,1.5,1.5,0,0,1,1.1-.4h.7Z" fill="#fff"/><path d="M162.5,25.5h-1.6V24.4h0a2.5,2.5,0,0,1-2.2,1.3c-1.6,0-2.5-1-2.5-3V18.5h1.6v4c0,1.3.5,1.9,1.5,1.9a1.6,1.6,0,0,0,1.1-.5,2.2,2.2,0,0,0,.5-1.4v-4h1.6Z" fill="#fff"/><path d="M175,25.5h-1.6V21.7a3.2,3.2,0,0,0-.3-1.6,1.1,1.1,0,0,0-1-.5,1.3,1.3,0,0,0-1.1.6,2.4,2.4,0,0,0-.4,1.5v3.8H169V21.6c0-1.3-.5-2-1.4-2a1.4,1.4,0,0,0-1.1.6,3.3,3.3,0,0,0-.4,1.5v3.8h-1.6v-7h1.6v1.1h.1a2.5,2.5,0,0,1,2.2-1.3,2.5,2.5,0,0,1,1.2.4,2.8,2.8,0,0,1,.8,1.1,2.5,2.5,0,0,1,2.3-1.5c1.5,0,2.3,1,2.3,2.9Z" fill="#fff"/><path d="M186.2,25.5h-1.6V24.4h0a2.4,2.4,0,0,1-2.1,1.3,2.1,2.1,0,0,1-1.6-.6,2,2,0,0,1-.6-1.5c0-1.3.7-2.1,2.3-2.3l2-.3c0-1-.4-1.5-1.4-1.5a3.1,3.1,0,0,0-2.2.9V19a4.9,4.9,0,0,1,2.5-.7c1.8,0,2.7.9,2.7,2.6Zm-1.6-3.4-1.4.2a1.8,1.8,0,0,0-1.1.3,1,1,0,0,0-.3.8,1.1,1.1,0,0,0,.3.8,1.2,1.2,0,0,0,.9.3,2.1,2.1,0,0,0,1.2-.5,2,2,0,0,0,.4-1.3Z" fill="#fff"/><path d="M193.1,25.2a3.9,3.9,0,0,1-2,.5,3.6,3.6,0,0,1-2.5-1,3.7,3.7,0,0,1-.9-2.5,3.6,3.6,0,0,1,3.7-3.9,3.1,3.1,0,0,1,1.7.4v1.4a3,3,0,0,0-1.5-.5,2.1,2.1,0,0,0-1.7.7,2.4,2.4,0,0,0-.6,1.8,2.4,2.4,0,0,0,.6,1.7,2.1,2.1,0,0,0,1.6.6,2.5,2.5,0,0,0,1.6-.6Zm-.6,2c0,.9-.6,1.3-1.9,1.3H190v-.8h.5q.9,0,.9-.6c0-.3-.3-.5-.8-.5h-.3V25.5h1v.6a1.2,1.2,0,0,1,.9.3A1.1,1.1,0,0,1,192.5,27.2Z" fill="#fff"/><path d="M196.3,25.5h-1.6v-7h1.6Z" fill="#fff"/><path d="M204.6,25.5H203V21.6c0-1.4-.5-2-1.4-2a1.7,1.7,0,0,0-1.2.5,2.4,2.4,0,0,0-.5,1.4v4h-1.6v-7h1.6v1.2h.1a2.4,2.4,0,0,1,2.2-1.4,2.2,2.2,0,0,1,1.8.8,3.3,3.3,0,0,1,.6,2.1Z" fill="#fff"/></svg>