<?xml version="1.0" encoding="utf-8"?>
<!-- Generator: Adobe Illustrator 22.1.0, SVG Export Plug-In . SVG Version: 6.00 Build 0)  -->
<svg version="1.1" xmlns="http://www.w3.org/2000/svg" xmlns:xlink="http://www.w3.org/1999/xlink" x="0px" y="0px"
	 viewBox="0 0 215 41" style="enable-background:new 0 0 215 41;" xml:space="preserve">
<style type="text/css">
	.st0{fill:#FFFFFF;}
	.st1{fill:#8C8C8C;}
	.st2{fill:#F25022;}
	.st3{fill:#00A4EF;}
	.st4{fill:#7FBA00;}
	.st5{fill:#FFB900;}
	.st6{fill:#5E5E5E;}
</style>
<g id="Layer_1">
	<title>MS-SymbolLockup</title>
	<rect class="st0" width="215" height="41"/>
	<path class="st1" d="M214,1v39H1V1H214 M215,0H0v41h215V0z"/>
	<rect x="13" y="11" class="st2" width="9" height="9"/>
	<rect x="13" y="21" class="st3" width="9" height="9"/>
	<rect x="23" y="11" class="st4" width="9" height="9"/>
	<rect x="23" y="21" class="st5" width="9" height="9"/>
</g>
<g id="Layer_2">
	<g>
		<path class="st6" d="M57.6,25.5h-1.7v-6.8c0-0.6,0-1.2,0.1-2h0c-0.1,0.5-0.2,0.8-0.3,1l-3.1,7.8h-1.2l-3.1-7.7
			c-0.1-0.2-0.2-0.6-0.3-1h0c0,0.4,0.1,1.1,0.1,2v6.7h-1.6V15.1h2.4l2.7,6.9c0.2,0.5,0.3,0.9,0.4,1.2h0c0.2-0.5,0.3-1,0.4-1.2
			l2.8-6.9h2.3V25.5z"/>
		<path class="st6" d="M60.4,16.5c-0.3,0-0.5-0.1-0.7-0.3c-0.2-0.2-0.3-0.4-0.3-0.7s0.1-0.5,0.3-0.7c0.2-0.2,0.4-0.3,0.7-0.3
			c0.3,0,0.5,0.1,0.7,0.3c0.2,0.2,0.3,0.4,0.3,0.7c0,0.3-0.1,0.5-0.3,0.7C60.9,16.4,60.7,16.5,60.4,16.5z M61.2,25.5h-1.7V18h1.7
			V25.5z"/>
		<path class="st6" d="M68.4,25.2c-0.6,0.3-1.3,0.5-2.1,0.5c-1.1,0-2-0.3-2.7-1c-0.7-0.7-1-1.6-1-2.7c0-1.2,0.4-2.2,1.1-3
			c0.7-0.7,1.7-1.1,2.9-1.1c0.7,0,1.3,0.1,1.8,0.4v1.6c-0.5-0.4-1.1-0.6-1.7-0.6c-0.7,0-1.3,0.2-1.8,0.7c-0.5,0.5-0.7,1.1-0.7,1.9
			c0,0.8,0.2,1.4,0.6,1.8c0.4,0.4,1,0.7,1.7,0.7c0.6,0,1.2-0.2,1.7-0.6V25.2z"/>
		<path class="st6" d="M74,19.7c-0.2-0.2-0.5-0.2-0.9-0.2c-0.5,0-0.9,0.2-1.3,0.7s-0.5,1.1-0.5,1.8v3.6h-1.7V18h1.7v1.5h0
			c0.2-0.5,0.4-0.9,0.8-1.2c0.3-0.3,0.7-0.4,1.1-0.4c0.3,0,0.5,0,0.7,0.1V19.7z"/>
		<path class="st6" d="M78,25.7c-1.1,0-2.1-0.3-2.8-1c-0.7-0.7-1-1.6-1-2.8c0-1.3,0.4-2.2,1.1-2.9c0.7-0.7,1.7-1.1,2.9-1.1
			c1.2,0,2.1,0.3,2.7,1s1,1.6,1,2.8c0,1.2-0.4,2.1-1.1,2.9C80.2,25.3,79.2,25.7,78,25.7z M78.1,19.2c-0.7,0-1.2,0.2-1.6,0.7
			S76,21,76,21.8c0,0.8,0.2,1.4,0.6,1.8c0.4,0.4,0.9,0.7,1.6,0.7c0.7,0,1.2-0.2,1.5-0.7c0.4-0.4,0.5-1.1,0.5-1.9
			c0-0.8-0.2-1.5-0.5-1.9C79.3,19.4,78.8,19.2,78.1,19.2z"/>
		<path class="st6" d="M82.8,25.3v-1.6c0.6,0.5,1.3,0.7,2.1,0.7c1,0,1.5-0.3,1.5-0.9c0-0.2,0-0.3-0.1-0.4c-0.1-0.1-0.2-0.2-0.4-0.3
			c-0.1-0.1-0.3-0.2-0.5-0.2c-0.2-0.1-0.4-0.2-0.7-0.2c-0.3-0.1-0.6-0.3-0.8-0.4c-0.2-0.1-0.4-0.3-0.6-0.5c-0.2-0.2-0.3-0.4-0.4-0.6
			c-0.1-0.2-0.1-0.5-0.1-0.8c0-0.4,0.1-0.7,0.3-0.9c0.2-0.3,0.4-0.5,0.7-0.7c0.3-0.2,0.6-0.3,1-0.4c0.4-0.1,0.7-0.1,1.1-0.1
			c0.7,0,1.3,0.1,1.8,0.3v1.5c-0.5-0.4-1.1-0.5-1.8-0.5c-0.2,0-0.4,0-0.6,0.1c-0.2,0-0.3,0.1-0.4,0.2s-0.2,0.2-0.3,0.3
			c-0.1,0.1-0.1,0.2-0.1,0.4c0,0.2,0,0.3,0.1,0.4c0.1,0.1,0.2,0.2,0.3,0.3c0.1,0.1,0.3,0.2,0.5,0.2c0.2,0.1,0.4,0.1,0.6,0.2
			c0.3,0.1,0.6,0.3,0.9,0.4c0.3,0.1,0.5,0.3,0.7,0.5c0.2,0.2,0.3,0.4,0.4,0.6c0.1,0.2,0.1,0.5,0.1,0.8c0,0.4-0.1,0.7-0.3,1
			c-0.2,0.3-0.4,0.5-0.7,0.7s-0.6,0.3-1,0.4s-0.8,0.1-1.2,0.1C84.1,25.7,83.4,25.5,82.8,25.3z"/>
		<path class="st6" d="M92.6,25.7c-1.1,0-2.1-0.3-2.8-1c-0.7-0.7-1-1.6-1-2.8c0-1.3,0.4-2.2,1.1-2.9c0.7-0.7,1.7-1.1,2.9-1.1
			c1.2,0,2.1,0.3,2.7,1s1,1.6,1,2.8c0,1.2-0.4,2.1-1.1,2.9C94.7,25.3,93.8,25.7,92.6,25.7z M92.7,19.2c-0.7,0-1.2,0.2-1.6,0.7
			s-0.6,1.1-0.6,1.9c0,0.8,0.2,1.4,0.6,1.8c0.4,0.4,0.9,0.7,1.6,0.7c0.7,0,1.2-0.2,1.5-0.7c0.4-0.4,0.5-1.1,0.5-1.9
			c0-0.8-0.2-1.5-0.5-1.9C93.9,19.4,93.4,19.2,92.7,19.2z"/>
		<path class="st6" d="M101.8,15.8c-0.2-0.1-0.5-0.2-0.8-0.2c-0.8,0-1.2,0.5-1.2,1.4v1h1.7v1.3h-1.7v6.1h-1.7v-6.1h-1.3V18h1.3v-1.2
			c0-0.8,0.3-1.4,0.8-1.9c0.5-0.5,1.2-0.7,1.9-0.7c0.4,0,0.7,0,1,0.1V15.8z"/>
		<path class="st6" d="M106.6,25.4c-0.3,0.2-0.8,0.2-1.3,0.2c-1.4,0-2.2-0.7-2.2-2.1v-4.2h-1.2V18h1.2v-1.7l1.7-0.5V18h1.8v1.3h-1.8
			v3.7c0,0.4,0.1,0.8,0.2,0.9c0.2,0.2,0.4,0.3,0.8,0.3c0.3,0,0.5-0.1,0.7-0.2V25.4z"/>
		<path class="st6" d="M112.2,16.5c-0.3,0-0.5-0.1-0.7-0.3c-0.2-0.2-0.3-0.4-0.3-0.7s0.1-0.5,0.3-0.7c0.2-0.2,0.4-0.3,0.7-0.3
			c0.3,0,0.5,0.1,0.7,0.3c0.2,0.2,0.3,0.4,0.3,0.7c0,0.3-0.1,0.5-0.3,0.7C112.7,16.4,112.5,16.5,112.2,16.5z M113.1,25.5h-1.7V18
			h1.7V25.5z"/>
		<path class="st6" d="M116.6,25.5h-1.7v-11h1.7V25.5z"/>
		<path class="st6" d="M124.7,22.2h-5.1c0,0.7,0.2,1.2,0.6,1.6c0.4,0.4,1,0.6,1.7,0.6c0.8,0,1.5-0.2,2.2-0.7V25
			c-0.7,0.4-1.6,0.6-2.7,0.6c-1.1,0-2-0.3-2.6-1c-0.6-0.7-0.9-1.6-0.9-2.9c0-1.2,0.3-2.1,1-2.8s1.5-1.1,2.6-1.1s1.8,0.3,2.4,1
			c0.6,0.7,0.8,1.6,0.8,2.7V22.2z M123.1,21c0-0.6-0.1-1.1-0.4-1.4c-0.3-0.3-0.7-0.5-1.2-0.5c-0.5,0-0.9,0.2-1.2,0.5
			c-0.3,0.4-0.5,0.8-0.6,1.4H123.1z"/>
		<path class="st6" d="M133,25.7c-1.1,0-2.1-0.3-2.8-1c-0.7-0.7-1-1.6-1-2.8c0-1.3,0.4-2.2,1.1-2.9c0.7-0.7,1.7-1.1,2.9-1.1
			c1.2,0,2.1,0.3,2.7,1s1,1.6,1,2.8c0,1.2-0.4,2.1-1.1,2.9C135.1,25.3,134.2,25.7,133,25.7z M133.1,19.2c-0.7,0-1.2,0.2-1.6,0.7
			s-0.6,1.1-0.6,1.9c0,0.8,0.2,1.4,0.6,1.8c0.4,0.4,0.9,0.7,1.6,0.7c0.7,0,1.2-0.2,1.5-0.7c0.4-0.4,0.5-1.1,0.5-1.9
			c0-0.8-0.2-1.5-0.5-1.9C134.2,19.4,133.7,19.2,133.1,19.2z"/>
		<path class="st6" d="M142.1,25.4c-0.3,0.2-0.8,0.2-1.3,0.2c-1.4,0-2.2-0.7-2.2-2.1v-4.2h-1.2V18h1.2v-1.7l1.7-0.5V18h1.8v1.3h-1.8
			v3.7c0,0.4,0.1,0.8,0.2,0.9c0.2,0.2,0.4,0.3,0.8,0.3c0.3,0,0.5-0.1,0.7-0.2V25.4z"/>
		<path class="st6" d="M149.7,25.5H148v-1.2h0c-0.5,0.9-1.3,1.4-2.3,1.4c-1.8,0-2.6-1.1-2.6-3.2V18h1.7v4.3c0,1.3,0.5,2,1.5,2
			c0.5,0,0.9-0.2,1.2-0.6c0.3-0.4,0.5-0.9,0.5-1.4V18h1.7V25.5z"/>
		<path class="st6" d="M155.9,19.7c-0.2-0.2-0.5-0.2-0.9-0.2c-0.5,0-0.9,0.2-1.3,0.7s-0.5,1.1-0.5,1.8v3.6h-1.7V18h1.7v1.5h0
			c0.2-0.5,0.4-0.9,0.8-1.2c0.3-0.3,0.7-0.4,1.1-0.4c0.3,0,0.5,0,0.7,0.1V19.7z"/>
		<path class="st6" d="M163.2,25.5h-1.7v-1.2h0c-0.5,0.9-1.3,1.4-2.3,1.4c-1.8,0-2.6-1.1-2.6-3.2V18h1.7v4.3c0,1.3,0.5,2,1.5,2
			c0.5,0,0.9-0.2,1.2-0.6c0.3-0.4,0.5-0.9,0.5-1.4V18h1.7V25.5z"/>
		<path class="st6" d="M176.1,25.5h-1.7v-4.1c0-0.8-0.1-1.3-0.3-1.7s-0.6-0.5-1.1-0.5c-0.4,0-0.8,0.2-1.1,0.7
			c-0.3,0.4-0.5,1-0.5,1.6v4h-1.7v-4.2c0-1.4-0.5-2.1-1.5-2.1c-0.5,0-0.8,0.2-1.1,0.6c-0.3,0.4-0.4,1-0.4,1.6v4H165V18h1.7v1.2h0
			c0.5-0.9,1.3-1.4,2.3-1.4c0.5,0,1,0.1,1.4,0.4c0.4,0.3,0.6,0.7,0.8,1.1c0.6-1,1.4-1.5,2.5-1.5c1.6,0,2.5,1,2.5,3V25.5z"/>
		<path class="st6" d="M187.3,25.5h-1.6v-1.2h0c-0.5,0.9-1.3,1.3-2.3,1.3c-0.7,0-1.3-0.2-1.7-0.6c-0.4-0.4-0.6-0.9-0.6-1.6
			c0-1.4,0.8-2.2,2.4-2.5l2.2-0.3c0-1.1-0.5-1.6-1.5-1.6c-0.9,0-1.7,0.3-2.4,0.9v-1.5c0.8-0.5,1.7-0.7,2.7-0.7
			c1.9,0,2.8,0.9,2.8,2.8V25.5z M185.6,21.8l-1.6,0.2c-0.5,0.1-0.9,0.2-1.1,0.4c-0.2,0.2-0.4,0.5-0.4,0.9c0,0.3,0.1,0.6,0.3,0.8
			s0.5,0.3,0.9,0.3c0.5,0,0.9-0.2,1.3-0.5s0.5-0.8,0.5-1.4V21.8z"/>
		<path class="st6" d="M194.3,25.2c-0.6,0.3-1.3,0.5-2.1,0.5c-1.1,0-2-0.3-2.7-1c-0.7-0.7-1-1.6-1-2.7c0-1.2,0.4-2.2,1.1-3
			c0.7-0.7,1.7-1.1,2.9-1.1c0.7,0,1.3,0.1,1.8,0.4v1.6c-0.5-0.4-1.1-0.6-1.7-0.6c-0.7,0-1.3,0.2-1.8,0.7c-0.5,0.5-0.7,1.1-0.7,1.9
			c0,0.8,0.2,1.4,0.6,1.8c0.4,0.4,1,0.7,1.7,0.7c0.6,0,1.2-0.2,1.7-0.6V25.2z M193.7,27.3c0,0.9-0.7,1.4-2.1,1.4c-0.2,0-0.4,0-0.6,0
			v-0.8c0.2,0,0.4,0,0.5,0c0.6,0,1-0.2,1-0.6c0-0.4-0.3-0.5-0.9-0.5c0,0-0.1,0-0.3,0v-1.3h1v0.7c0.4,0,0.8,0.1,1,0.3
			C193.6,26.7,193.7,27,193.7,27.3z"/>
		<path class="st6" d="M197.3,25.5h-1.7V18h1.7V25.5z"/>
		<path class="st6" d="M205.8,25.5h-1.7v-4.2c0-1.4-0.5-2.1-1.5-2.1c-0.5,0-0.9,0.2-1.3,0.6c-0.3,0.4-0.5,0.9-0.5,1.5v4.3h-1.7V18
			h1.7v1.2h0c0.6-0.9,1.4-1.4,2.4-1.4c0.8,0,1.4,0.3,1.9,0.8s0.6,1.3,0.6,2.3V25.5z"/>
	</g>
</g>
</svg>
